<?xml version="1.0" encoding="utf-8"?>
<!-- Generator: Adobe Illustrator 16.0.0, SVG Export Plug-In . SVG Version: 6.00 Build 0)  -->
<!DOCTYPE svg PUBLIC "-//W3C//DTD SVG 1.1//EN" "http://www.w3.org/Graphics/SVG/1.1/DTD/svg11.dtd">
<svg version="1.1" id="Capa_1" xmlns="http://www.w3.org/2000/svg" xmlns:xlink="http://www.w3.org/1999/xlink" x="0px" y="0px"
	 width="467.094px" height="170.209px" viewBox="0 0 467.094 170.209" enable-background="new 0 0 467.094 170.209"
	 xml:space="preserve">
<g>
	<path d="M23.551,0C23.551,0,0,4.61,0,27.88c0,23.267,0,142.329,0,142.329s2.615-28.672,23.551-28.672h443.543l-45.23-73.291
		L467.094,0H23.551z"/>
</g>
<g>
	<path fill="#FDFFFF" d="M151.452,50.752c0,17.899-10.854,28.753-26.809,28.753c-16.199,0-25.675-12.23-25.675-27.781
		c0-16.36,10.448-28.59,26.566-28.59C142.3,23.133,151.452,35.687,151.452,50.752z M112.008,51.481
		c0,10.691,5.021,18.224,13.283,18.224c8.342,0,13.121-7.938,13.121-18.548c0-9.8-4.698-18.223-13.202-18.223
		C116.868,32.934,112.008,40.871,112.008,51.481z"/>
	<path fill="#FDFFFF" d="M159.474,51.643c0-4.941-0.162-9.152-0.324-12.635h10.691l0.567,5.427h0.243
		c1.62-2.511,5.669-6.317,12.23-6.317c8.1,0,14.174,5.345,14.174,17.008v23.488h-12.311V56.665c0-5.103-1.782-8.585-6.236-8.585
		c-3.402,0-5.427,2.349-6.236,4.617c-0.324,0.729-0.486,1.944-0.486,3.078v22.84h-12.311V51.643z"/>
	<path fill="#FDFFFF" d="M224.112,65.898c3.321,1.701,8.423,3.401,13.688,3.401c5.67,0,8.667-2.349,8.667-5.913
		c0-3.401-2.592-5.345-9.152-7.694c-9.071-3.159-14.984-8.18-14.984-16.118c0-9.314,7.775-16.441,20.653-16.441
		c6.156,0,10.691,1.296,13.932,2.753l-2.754,9.962c-2.188-1.053-6.074-2.592-11.42-2.592s-7.938,2.43-7.938,5.265
		c0,3.483,3.078,5.021,10.124,7.694c9.638,3.564,14.174,8.585,14.174,16.28c0,9.152-7.046,16.928-22.03,16.928
		c-6.236,0-12.392-1.62-15.47-3.321L224.112,65.898z"/>
	<path fill="#FDFFFF" d="M290.206,78.614l-0.73-3.969h-0.242c-2.592,3.159-6.641,4.86-11.338,4.86
		c-8.02,0-12.798-5.832-12.798-12.149c0-10.286,9.233-15.227,23.245-15.146v-0.567c0-2.106-1.135-5.103-7.209-5.103
		c-4.049,0-8.342,1.377-10.934,2.997l-2.268-7.938c2.754-1.539,8.18-3.482,15.389-3.482c13.201,0,17.414,7.775,17.414,17.089v13.769
		c0,3.807,0.162,7.451,0.566,9.638H290.206z M288.747,59.904c-6.479-0.081-11.5,1.458-11.5,6.236c0,3.159,2.105,4.698,4.859,4.698
		c3.078,0,5.588-2.025,6.398-4.536c0.162-0.648,0.242-1.377,0.242-2.106V59.904z"/>
	<path fill="#FDFFFF" d="M310.456,21.108h12.313v57.505h-12.313V21.108z"/>
	<path fill="#FDFFFF" d="M342.208,62.739c0.404,5.103,5.426,7.532,11.176,7.532c4.213,0,7.613-0.567,10.936-1.62l1.619,8.343
		c-4.049,1.62-8.99,2.43-14.336,2.43c-13.445,0-21.139-7.775-21.139-20.167c0-10.043,6.236-21.139,20.006-21.139
		c12.797,0,17.656,9.962,17.656,19.762c0,2.106-0.244,3.969-0.406,4.86H342.208z M356.706,54.315c0-2.997-1.297-8.018-6.967-8.018
		c-5.184,0-7.289,4.698-7.613,8.018H356.706z"/>
</g>
<rect x="146.934" y="101.209" fill="none" width="173.227" height="48"/>
<text transform="matrix(1 0 0 1 146.9336 132.4487)" fill="#FDFFFF" font-family="'MyriadPro-Regular'" font-size="44">(9.02 left)</text>
</svg>
